<!-- TODO: Replace with the official Spotify logo SVG from the Spotify brand guidelines:
     https://developer.spotify.com/documentation/general/design-and-branding/
     Download "Spotify_Icon_RGB_Green.svg" from the Spotify Brand Guidelines ZIP. -->
<svg xmlns="http://www.w3.org/2000/svg" viewBox="0 0 24 24" role="img" aria-label="Spotify">
  <circle cx="12" cy="12" r="12" fill="#1DB954"/>
  <path fill="#fff" d="M17.9 10.9c-2.9-1.7-7.6-1.9-10.3-1-.4.1-.9-.1-1-.6-.1-.4.1-.9.6-1 3.1-1 8.4-.8 11.7 1.2.4.2.5.8.2 1.2-.2.3-.8.4-1.2.2zm-.1 2.9c-.2.4-.7.5-1.1.3-2.4-1.5-6.1-1.9-9-1-.3.1-.7-.1-.8-.4-.1-.3.1-.7.5-.8 3.3-1 7.4-.5 10.1 1.2.4.2.5.7.3 1zm-1.3 2.8c-.2.3-.6.4-.9.2-2.1-1.3-4.8-1.6-7.9-.9-.3.1-.6-.1-.7-.4-.1-.3.1-.6.5-.7 3.4-.8 6.4-.4 8.8 1 .3.2.4.5.2.8z"/>
</svg>
